# 3ds Max Wavefront OBJ Exporter v0.99 - (c)2007 guruware
# File Created: 10.12.2023 10:41:32

mtllib ???\start_button.mtl

#
# object Plane001
#

v  -27.2124 -11.0619 -0.0000
v  27.2124 -11.0619 -0.0000
v  27.2124 11.0619 0.0000
v  -27.2124 11.0619 0.0000
# 4 vertices

vn 0.0000 -0.0000 1.0000
# 1 vertex normals

vt 0.0254 0.3108 0.0000
vt 0.9682 0.3108 0.0000
vt 0.9682 0.6940 0.0000
vt 0.0254 0.6940 0.0000
# 4 texture coords

o Plane001
g Plane001
usemtl wire_225143087
s 1
f 1/1/1 2/2/1 3/3/1 
f 3/3/1 4/4/1 1/1/1 
# 2 faces

