# 3ds Max Wavefront OBJ Exporter v0.99 - (c)2007 guruware
# File Created: 25.11.2023 22:35:47

mtllib NM_zombie_rightleg.mtl

#
# object Cylinder001
#

v  3.1735 15.3976 -0.1233
v  2.0539 16.1847 2.5768
v  2.0097 15.1334 2.5183
v  3.0781 14.4644 -0.1233
v  -0.1188 16.1847 3.6953
v  -0.1188 15.1334 3.6126
v  -2.2915 16.1847 2.5768
v  -2.2473 15.1334 2.5183
v  -3.1914 16.1847 -0.1233
v  -3.1290 15.1334 -0.1233
v  -2.2915 16.1847 -2.8235
v  -2.2473 15.1334 -2.7650
v  -0.1188 16.1847 -3.9420
v  -0.1188 15.1334 -3.8592
v  2.2394 15.4229 -4.0223
v  2.1146 14.8859 -3.9603
v  2.5375 9.1762 -0.1233
v  1.7595 9.1762 2.1868
v  1.4811 2.1677 1.3566
v  2.1438 2.1677 -0.4488
v  -0.1188 9.1762 3.1437
v  -0.1188 2.1677 2.1044
v  -1.9970 9.1762 2.1868
v  -1.7187 2.1677 1.3566
v  -2.7750 9.1762 -0.1233
v  -2.3814 2.1677 -0.4488
v  -1.9970 9.1762 -2.4335
v  -1.7187 2.1677 -2.2541
v  -0.1188 9.1762 -3.3904
v  -0.1188 2.1677 -3.0020
v  1.7595 9.1762 -2.4335
v  1.4811 2.1677 -2.2541
v  1.4209 -0.2669 1.2507
v  2.0586 -0.2669 -0.3487
v  -0.1188 -0.2669 1.9132
v  -1.6585 -0.2669 1.2507
v  -2.2962 -0.2669 -0.3487
v  -1.6585 -0.2669 -1.9481
v  -0.1188 -0.2669 -2.6106
v  1.4209 -0.2669 -1.9481
v  1.4207 -1.9197 0.9486
v  2.0584 -1.9197 -0.6062
v  -0.1188 -1.9197 1.5927
v  -1.6583 -1.9197 0.9486
v  -2.2960 -1.9197 -0.6062
v  -1.6583 -1.9197 -2.1611
v  -0.1188 -1.9197 -2.8052
v  1.4207 -1.9197 -2.1611
v  1.2766 -4.4175 0.1397
v  1.2953 -6.3590 0.3248
v  1.8810 -6.3590 -1.1022
v  1.8545 -4.4175 -1.1344
v  -0.1188 -4.4175 0.6675
v  -0.1188 -6.3590 0.9159
v  -1.5141 -4.4175 0.1397
v  -1.5329 -6.3590 0.3248
v  -2.0921 -4.4175 -1.1344
v  -2.1186 -6.3590 -1.1022
v  -1.5141 -4.4175 -2.4085
v  -1.5329 -6.3590 -2.5292
v  -0.1188 -4.4175 -2.9362
v  -0.1188 -6.3590 -3.1203
v  1.2766 -4.4175 -2.4085
v  1.2953 -6.3590 -2.5292
v  1.6023 -19.2760 -0.4874
v  1.0982 -19.2760 4.2080
v  -0.1188 -19.2760 4.5430
v  -1.3358 -19.2760 4.2080
v  -1.8399 -19.2760 -0.4874
v  -1.3358 -19.2760 -1.2962
v  -0.1188 -19.2760 -1.6313
v  1.0982 -19.2760 -1.2962
v  1.6162 -18.6289 -0.5135
v  1.1080 -18.6289 4.1820
v  -0.1188 -18.6289 4.5170
v  -1.3456 -18.6289 4.1820
v  -1.8538 -18.6289 -0.5135
v  -1.3456 -18.6289 -1.3224
v  -0.1188 -18.6289 -1.6575
v  1.1080 -18.6289 -1.3224
v  1.2017 -12.4940 0.3037
v  1.7486 -12.4940 -0.7796
v  -0.1188 -12.4940 0.7524
v  -1.4392 -12.4940 0.3037
v  -1.9862 -12.4940 -0.7796
v  -1.4392 -12.4940 -1.8628
v  -0.1188 -12.4940 -2.3115
v  1.2017 -12.4940 -1.8628
v  1.0528 -16.8156 0.2238
v  1.5381 -16.8156 -0.6465
v  -0.1188 -16.8156 0.5843
v  -1.2904 -16.8156 0.2238
v  -1.7757 -16.8156 -0.6465
v  -1.2904 -16.8156 -1.5169
v  -0.1188 -16.8156 -1.8774
v  1.0528 -16.8156 -1.5169
v  3.1914 15.5474 -0.0940
v  1.9108 16.6512 2.8396
v  -0.0907 18.2194 3.7313
v  -1.8110 18.9254 2.5473
v  -2.7971 19.2760 0.3438
v  -1.8110 18.9254 -1.8598
v  -0.0907 18.2194 -4.1112
v  2.3915 15.9184 -4.1844
v  1.2869 16.7823 -4.5430
# 105 vertices

vn 0.9912 -0.1138 0.0676
vn 0.7737 -0.0678 0.6300
vn 0.7296 -0.0706 0.6802
vn 0.9930 -0.1000 0.0626
vn -0.0179 -0.0598 0.9980
vn -0.0000 -0.0783 0.9969
vn -0.7645 0.0092 0.6446
vn -0.7572 -0.0682 0.6496
vn -0.9982 0.0533 -0.0281
vn -0.9982 -0.0597 -0.0000
vn -0.7773 0.0797 -0.6240
vn -0.7572 -0.0682 -0.6496
vn -0.3292 -0.1216 -0.9364
vn -0.2620 -0.0765 -0.9620
vn 0.5560 -0.3146 -0.7693
vn 0.5643 -0.1836 -0.8049
vn 0.9967 -0.0812 0.0057
vn 0.7451 -0.0970 0.6599
vn 0.7374 -0.0797 0.6708
vn 0.9987 -0.0506 -0.0055
vn 0.0012 -0.1090 0.9940
vn 0.0045 -0.1078 0.9942
vn -0.7501 -0.0858 0.6558
vn -0.7378 -0.0773 0.6706
vn -0.9982 -0.0594 0.0035
vn -0.9986 -0.0507 -0.0138
vn -0.7566 -0.0591 -0.6512
vn -0.7270 -0.0765 -0.6823
vn -0.0337 -0.1075 -0.9936
vn -0.0043 -0.1000 -0.9950
vn 0.7693 -0.1199 -0.6276
vn 0.7275 -0.0743 -0.6820
vn 0.7062 -0.0864 0.7028
vn 0.9993 -0.0251 0.0273
vn 0.0033 -0.1290 0.9916
vn -0.7058 -0.0935 0.7022
vn -0.9994 -0.0255 0.0213
vn -0.7321 -0.0028 -0.6812
vn -0.0033 -0.0152 -0.9999
vn 0.7320 -0.0101 -0.6812
vn 0.6942 -0.1947 0.6929
vn 0.9988 -0.0489 0.0093
vn -0.0000 -0.2620 0.9651
vn -0.6942 -0.1947 0.6929
vn -0.9988 -0.0489 0.0093
vn -0.7073 0.0584 -0.7045
vn -0.0031 0.0877 -0.9961
vn 0.7092 0.0615 -0.7023
vn 0.7082 -0.0963 0.6994
vn 0.7003 0.0385 0.7128
vn 1.0000 -0.0038 -0.0031
vn 0.9993 -0.0294 -0.0228
vn 0.0000 -0.1209 0.9927
vn 0.0000 0.0565 0.9984
vn -0.7082 -0.0963 0.6994
vn -0.7003 0.0385 0.7128
vn -0.9993 -0.0294 -0.0228
vn -1.0000 -0.0038 -0.0031
vn -0.6797 0.0477 -0.7319
vn -0.6963 -0.0260 -0.7173
vn -0.0031 0.0776 -0.9970
vn 0.0000 -0.0258 -0.9997
vn 0.6822 0.0432 -0.7299
vn 0.6963 -0.0260 -0.7173
vn 0.7407 -0.6513 -0.1649
vn 0.6051 -0.5941 0.5300
vn -0.0005 -0.6371 0.7708
vn -0.6051 -0.5939 0.5303
vn -0.7407 -0.6515 -0.1637
vn -0.4558 -0.6495 -0.6086
vn 0.0005 -0.6672 -0.7449
vn 0.4563 -0.6490 -0.6088
vn 0.9808 0.0422 -0.1902
vn 0.6574 0.4426 0.6099
vn 0.0001 0.5191 0.8547
vn -0.6578 0.4409 0.6106
vn -0.9810 0.0426 -0.1894
vn -0.6062 -0.0476 -0.7939
vn 0.0003 -0.0743 -0.9972
vn 0.6064 -0.0484 -0.7937
vn 0.6560 -0.0280 0.7542
vn 0.9991 -0.0420 -0.0011
vn 0.0013 -0.0309 0.9995
vn -0.6570 -0.0263 0.7534
vn -0.9991 -0.0420 -0.0011
vn -0.6585 -0.0838 -0.7479
vn 0.0000 -0.1080 -0.9942
vn 0.6585 -0.0838 -0.7479
vn 0.7544 0.2638 0.6010
vn 0.9998 -0.0126 -0.0126
vn 0.0026 0.5775 0.8164
vn -0.7562 0.2619 0.5997
vn -0.9998 -0.0126 -0.0126
vn -0.6205 -0.0763 -0.7805
vn 0.0000 -0.1060 -0.9944
vn 0.6205 -0.0763 -0.7805
vn 0.9761 -0.1497 0.1574
vn 0.5535 -0.1872 0.8115
vn -0.2204 0.0296 0.9750
vn -0.7577 0.1397 0.6375
vn -0.9875 0.1575 0.0099
vn -0.8353 0.2708 -0.4784
vn -0.5363 0.0874 -0.8395
vn 0.3454 -0.4497 -0.8237
vn -0.2302 -0.3654 -0.9019
# 105 vertex normals

vt 0.5980 0.8652 0.0000
vt 0.5234 0.9013 0.0000
vt 0.5198 0.8725 0.0000
vt 0.5924 0.8402 0.0000
vt 0.4573 0.9081 0.0000
vt 0.4555 0.8797 0.0000
vt 0.3928 0.9099 0.0000
vt 0.3916 0.8819 0.0000
vt 0.3181 0.9104 0.0000
vt 0.3175 0.8823 0.0000
vt 0.2443 0.9103 0.0000
vt 0.2439 0.8825 0.0000
vt 0.1805 0.9126 0.0000
vt 0.1803 0.8832 0.0000
vt 0.1161 0.8896 0.0000
vt 0.1202 0.8747 0.0000
vt 0.5589 0.6981 0.0000
vt 0.4947 0.7122 0.0000
vt 0.4656 0.5248 0.0000
vt 0.5168 0.5131 0.0000
vt 0.4386 0.7204 0.0000
vt 0.4174 0.5320 0.0000
vt 0.3817 0.7232 0.0000
vt 0.3684 0.5338 0.0000
vt 0.3156 0.7230 0.0000
vt 0.3154 0.5322 0.0000
vt 0.2490 0.7212 0.0000
vt 0.2632 0.5296 0.0000
vt 0.1911 0.7179 0.0000
vt 0.2158 0.5260 0.0000
vt 0.1342 0.7098 0.0000
vt 0.1690 0.5194 0.0000
vt 0.0694 0.6935 0.0000
vt 0.1181 0.5098 0.0000
vt 0.4550 0.4605 0.0000
vt 0.4997 0.4494 0.0000
vt 0.4113 0.4675 0.0000
vt 0.3668 0.4688 0.0000
vt 0.3201 0.4662 0.0000
vt 0.2718 0.4624 0.0000
vt 0.2237 0.4582 0.0000
vt 0.1760 0.4523 0.0000
vt 0.1290 0.4454 0.0000
vt 0.4506 0.4159 0.0000
vt 0.4934 0.4042 0.0000
vt 0.4074 0.4233 0.0000
vt 0.3635 0.4239 0.0000
vt 0.3192 0.4206 0.0000
vt 0.2742 0.4163 0.0000
vt 0.2288 0.4118 0.0000
vt 0.1838 0.4077 0.0000
vt 0.1388 0.4033 0.0000
vt 0.4461 0.3454 0.0000
vt 0.4406 0.2927 0.0000
vt 0.4817 0.2888 0.0000
vt 0.4850 0.3384 0.0000
vt 0.4021 0.3503 0.0000
vt 0.4001 0.2954 0.0000
vt 0.3574 0.3523 0.0000
vt 0.3596 0.2977 0.0000
vt 0.3163 0.3513 0.0000
vt 0.3190 0.2982 0.0000
vt 0.2767 0.3484 0.0000
vt 0.2786 0.2970 0.0000
vt 0.2353 0.3447 0.0000
vt 0.2386 0.2943 0.0000
vt 0.1945 0.3412 0.0000
vt 0.1986 0.2896 0.0000
vt 0.1565 0.3378 0.0000
vt 0.1577 0.2837 0.0000
vt 0.7635 0.8032 0.0000
vt 0.7903 0.6779 0.0000
vt 0.8241 0.6723 0.0000
vt 0.8560 0.6848 0.0000
vt 0.8564 0.8128 0.0000
vt 0.8405 0.8332 0.0000
vt 0.8067 0.8389 0.0000
vt 0.7749 0.8264 0.0000
vt 0.8512 0.2446 0.0000
vt 0.9073 0.3608 0.0000
vt 0.8920 0.3700 0.0000
vt 0.8397 0.2572 0.0000
vt 0.8108 0.2306 0.0000
vt 0.8091 0.2477 0.0000
vt 0.7690 0.2388 0.0000
vt 0.7780 0.2535 0.0000
vt 0.6955 0.3446 0.0000
vt 0.7095 0.3562 0.0000
vt 0.6801 0.3657 0.0000
vt 0.6940 0.3770 0.0000
vt 0.6582 0.3923 0.0000
vt 0.6718 0.4037 0.0000
vt 0.9197 0.3833 0.0000
vt 0.9381 0.4122 0.0000
vt 0.9232 0.4219 0.0000
vt 0.9046 0.3926 0.0000
vt 0.4291 0.1255 0.0000
vt 0.4618 0.1225 0.0000
vt 0.3917 0.1283 0.0000
vt 0.3543 0.1303 0.0000
vt 0.3218 0.1314 0.0000
vt 0.2892 0.1314 0.0000
vt 0.2515 0.1290 0.0000
vt 0.2139 0.1242 0.0000
vt 0.1816 0.1181 0.0000
vt 0.4165 0.0086 0.0000
vt 0.4434 0.0057 0.0000
vt 0.3833 0.0112 0.0000
vt 0.3501 0.0132 0.0000
vt 0.3230 0.0142 0.0000
vt 0.2959 0.0140 0.0000
vt 0.2627 0.0117 0.0000
vt 0.2297 0.0076 0.0000
vt 0.2031 0.0026 0.0000
vt 0.5982 0.8694 0.0000
vt 0.5177 0.9155 0.0000
vt 0.4594 0.9638 0.0000
vt 0.4004 0.9834 0.0000
vt 0.3326 0.9943 0.0000
vt 0.2638 0.9878 0.0000
vt 0.1833 0.9698 0.0000
vt 0.0232 0.8287 0.0000
vt 0.1132 0.9041 0.0000
vt 0.0118 0.8557 0.0000
vt 0.0140 0.8522 0.0000
vt 0.1412 0.9322 0.0000
vt 0.8346 0.3741 0.0000
vt 0.8499 0.3977 0.0000
vt 0.8011 0.3634 0.0000
vt 0.7658 0.3685 0.0000
vt 0.7477 0.3895 0.0000
vt 0.7309 0.4112 0.0000
vt 0.7093 0.4370 0.0000
vt 0.8638 0.4216 0.0000
vt 0.8820 0.4500 0.0000
# 135 texture coords

o Cylinder001
g Cylinder001
usemtl wire_087225143
s 1
f 1/1/1 2/2/2 3/3/3 
f 3/3/3 4/4/4 1/1/1 
f 2/2/2 5/5/5 6/6/6 
f 6/6/6 3/3/3 2/2/2 
f 7/7/7 8/8/8 6/6/6 
f 6/6/6 5/5/5 7/7/7 
f 9/9/9 10/10/10 8/8/8 
f 8/8/8 7/7/7 9/9/9 
f 9/9/9 11/11/11 12/12/12 
f 12/12/12 10/10/10 9/9/9 
f 11/11/11 13/13/13 14/14/14 
f 14/14/14 12/12/12 11/11/11 
f 15/15/15 16/16/16 14/14/14 
f 14/14/14 13/13/13 15/15/15 
f 17/17/17 18/18/18 19/19/19 
f 19/19/19 20/20/20 17/17/17 
f 18/18/18 21/21/21 22/22/22 
f 22/22/22 19/19/19 18/18/18 
f 21/21/21 23/23/23 24/24/24 
f 24/24/24 22/22/22 21/21/21 
f 23/23/23 25/25/25 26/26/26 
f 26/26/26 24/24/24 23/23/23 
f 25/25/25 27/27/27 28/28/28 
f 28/28/28 26/26/26 25/25/25 
f 27/27/27 29/29/29 30/30/30 
f 30/30/30 28/28/28 27/27/27 
f 29/29/29 31/31/31 32/32/32 
f 32/32/32 30/30/30 29/29/29 
f 31/31/31 17/33/17 20/34/20 
f 20/34/20 32/32/32 31/31/31 
f 20/20/20 19/19/19 33/35/33 
f 33/35/33 34/36/34 20/20/20 
f 19/19/19 22/22/22 35/37/35 
f 35/37/35 33/35/33 19/19/19 
f 22/22/22 24/24/24 36/38/36 
f 36/38/36 35/37/35 22/22/22 
f 24/24/24 26/26/26 37/39/37 
f 37/39/37 36/38/36 24/24/24 
f 26/26/26 28/28/28 38/40/38 
f 38/40/38 37/39/37 26/26/26 
f 28/28/28 30/30/30 39/41/39 
f 39/41/39 38/40/38 28/28/28 
f 30/30/30 32/32/32 40/42/40 
f 40/42/40 39/41/39 30/30/30 
f 32/32/32 20/34/20 34/43/34 
f 34/43/34 40/42/40 32/32/32 
f 34/36/34 33/35/33 41/44/41 
f 41/44/41 42/45/42 34/36/34 
f 33/35/33 35/37/35 43/46/43 
f 43/46/43 41/44/41 33/35/33 
f 36/38/36 44/47/44 43/46/43 
f 43/46/43 35/37/35 36/38/36 
f 37/39/37 45/48/45 44/47/44 
f 44/47/44 36/38/36 37/39/37 
f 38/40/38 46/49/46 45/48/45 
f 45/48/45 37/39/37 38/40/38 
f 39/41/39 47/50/47 46/49/46 
f 46/49/46 38/40/38 39/41/39 
f 39/41/39 40/42/40 48/51/48 
f 48/51/48 47/50/47 39/41/39 
f 40/42/40 34/43/34 42/52/42 
f 42/52/42 48/51/48 40/42/40 
f 49/53/49 50/54/50 51/55/51 
f 51/55/51 52/56/52 49/53/49 
f 53/57/53 54/58/54 50/54/50 
f 50/54/50 49/53/49 53/57/53 
f 53/57/53 55/59/55 56/60/56 
f 56/60/56 54/58/54 53/57/53 
f 55/59/55 57/61/57 58/62/58 
f 58/62/58 56/60/56 55/59/55 
f 57/61/57 59/63/59 60/64/60 
f 60/64/60 58/62/58 57/61/57 
f 59/63/59 61/65/61 62/66/62 
f 62/66/62 60/64/60 59/63/59 
f 63/67/63 64/68/64 62/66/62 
f 62/66/62 61/65/61 63/67/63 
f 52/69/52 51/70/51 64/68/64 
f 64/68/64 63/67/63 52/69/52 
f 65/71/65 66/72/66 67/73/67 
f 67/73/67 68/74/68 69/75/69 
f 69/75/69 70/76/70 71/77/71 
f 67/73/67 69/75/69 71/77/71 
f 65/71/65 67/73/67 71/77/71 
f 72/78/72 65/71/65 71/77/71 
f 66/79/66 65/80/65 73/81/73 
f 73/81/73 74/82/74 66/79/66 
f 67/83/67 66/79/66 74/82/74 
f 74/82/74 75/84/75 67/83/67 
f 68/85/68 67/83/67 75/84/75 
f 75/84/75 76/86/76 68/85/68 
f 69/87/69 68/85/68 76/86/76 
f 76/86/76 77/88/77 69/87/69 
f 70/89/70 69/87/69 77/88/77 
f 77/88/77 78/90/78 70/89/70 
f 71/91/71 70/89/70 78/90/78 
f 78/90/78 79/92/79 71/91/71 
f 72/93/72 71/94/71 79/95/79 
f 79/95/79 80/96/80 72/93/72 
f 65/80/65 72/93/72 80/96/80 
f 80/96/80 73/81/73 65/80/65 
f 49/53/49 52/56/52 42/45/42 
f 42/45/42 41/44/41 49/53/49 
f 53/57/53 49/53/49 41/44/41 
f 41/44/41 43/46/43 53/57/53 
f 44/47/44 55/59/55 53/57/53 
f 53/57/53 43/46/43 44/47/44 
f 45/48/45 57/61/57 55/59/55 
f 55/59/55 44/47/44 45/48/45 
f 46/49/46 59/63/59 57/61/57 
f 57/61/57 45/48/45 46/49/46 
f 61/65/61 59/63/59 46/49/46 
f 46/49/46 47/50/47 61/65/61 
f 63/67/63 61/65/61 47/50/47 
f 47/50/47 48/51/48 63/67/63 
f 52/69/52 63/67/63 48/51/48 
f 48/51/48 42/52/42 52/69/52 
f 50/54/50 81/97/81 82/98/82 
f 82/98/82 51/55/51 50/54/50 
f 54/58/54 83/99/83 81/97/81 
f 81/97/81 50/54/50 54/58/54 
f 84/100/84 83/99/83 54/58/54 
f 54/58/54 56/60/56 84/100/84 
f 85/101/85 84/100/84 56/60/56 
f 56/60/56 58/62/58 85/101/85 
f 86/102/86 85/101/85 58/62/58 
f 58/62/58 60/64/60 86/102/86 
f 87/103/87 86/102/86 60/64/60 
f 60/64/60 62/66/62 87/103/87 
f 64/68/64 88/104/88 87/103/87 
f 87/103/87 62/66/62 64/68/64 
f 51/70/51 82/105/82 88/104/88 
f 88/104/88 64/68/64 51/70/51 
f 81/97/81 89/106/89 90/107/90 
f 90/107/90 82/98/82 81/97/81 
f 91/108/91 89/106/89 81/97/81 
f 81/97/81 83/99/83 91/108/91 
f 92/109/92 91/108/91 83/99/83 
f 83/99/83 84/100/84 92/109/92 
f 93/110/93 92/109/92 84/100/84 
f 84/100/84 85/101/85 93/110/93 
f 94/111/94 93/110/93 85/101/85 
f 85/101/85 86/102/86 94/111/94 
f 95/112/95 94/111/94 86/102/86 
f 86/102/86 87/103/87 95/112/95 
f 88/104/88 96/113/96 95/112/95 
f 95/112/95 87/103/87 88/104/88 
f 82/105/82 90/114/90 96/113/96 
f 96/113/96 88/104/88 82/105/82 
f 2/2/2 1/1/1 97/115/97 
f 97/115/97 98/116/98 2/2/2 
f 5/5/5 2/2/2 98/116/98 
f 98/116/98 99/117/99 5/5/5 
f 7/7/7 5/5/5 99/117/99 
f 99/117/99 100/118/100 7/7/7 
f 101/119/101 9/9/9 7/7/7 
f 7/7/7 100/118/100 101/119/101 
f 102/120/102 11/11/11 9/9/9 
f 9/9/9 101/119/101 102/120/102 
f 103/121/103 13/13/13 11/11/11 
f 11/11/11 102/120/102 103/121/103 
f 18/18/18 17/17/17 4/4/4 
f 4/4/4 3/3/3 18/18/18 
f 21/21/21 18/18/18 3/3/3 
f 3/3/3 6/6/6 21/21/21 
f 8/8/8 23/23/23 21/21/21 
f 21/21/21 6/6/6 8/8/8 
f 10/10/10 25/25/25 23/23/23 
f 23/23/23 8/8/8 10/10/10 
f 27/27/27 25/25/25 10/10/10 
f 10/10/10 12/12/12 27/27/27 
f 29/29/29 27/27/27 12/12/12 
f 12/12/12 14/14/14 29/29/29 
f 16/16/16 31/31/31 29/29/29 
f 29/29/29 14/14/14 16/16/16 
f 4/122/4 17/33/17 31/31/31 
f 31/31/31 16/16/16 4/122/4 
f 15/15/15 104/123/104 97/124/97 
f 97/124/97 1/125/1 15/15/15 
f 13/13/13 103/121/103 105/126/105 
f 13/13/13 105/126/105 104/123/104 
f 13/13/13 104/123/104 15/15/15 
f 1/125/1 4/122/4 16/16/16 
f 16/16/16 15/15/15 1/125/1 
f 89/127/89 74/82/74 73/81/73 
f 73/81/73 90/128/90 89/127/89 
f 75/84/75 74/82/74 89/127/89 
f 89/127/89 91/129/91 75/84/75 
f 76/86/76 75/84/75 91/129/91 
f 91/129/91 92/130/92 76/86/76 
f 77/88/77 76/86/76 92/130/92 
f 92/130/92 93/131/93 77/88/77 
f 78/90/78 77/88/77 93/131/93 
f 93/131/93 94/132/94 78/90/78 
f 79/92/79 78/90/78 94/132/94 
f 94/132/94 95/133/95 79/92/79 
f 96/134/96 80/96/80 79/95/79 
f 79/95/79 95/135/95 96/134/96 
f 90/128/90 73/81/73 80/96/80 
f 80/96/80 96/134/96 90/128/90 
# 199 faces

