# 3ds Max Wavefront OBJ Exporter v0.99 - (c)2007 guruware
# File Created: 08.12.2023 15:47:56

mtllib cube_map400_400.mtl

#
# object Plane001
#

v  -200.0000 200.0000 0.0000
v  -200.0000 -200.0000 -0.0000
v  200.0000 200.0000 0.0000
v  200.0000 -200.0000 -0.0000
# 4 vertices

vn 0.0000 -0.0000 1.0000
# 1 vertex normals

vt 0.0000 1.0000 0.0000
vt 0.0000 0.0000 0.0000
vt 1.0000 1.0000 0.0000
vt 1.0000 0.0000 0.0000
# 4 texture coords

o Plane001
g Plane001
usemtl wire_153228214
s 1
f 1/1/1 2/2/1 3/3/1 
f 4/4/1 3/3/1 2/2/1 
# 2 faces

