# 3ds Max Wavefront OBJ Exporter v0.99 - (c)2007 guruware
# File Created: 10.12.2023 10:49:16

mtllib title.mtl

#
# object Plane001
#

v  -47.1239 -27.2124 -0.0000
v  47.1239 -27.2124 -0.0000
v  47.1239 27.2124 0.0000
v  -47.1239 27.2124 0.0000
# 4 vertices

vn 0.0000 -0.0000 1.0000
# 1 vertex normals

vt 0.0278 0.2226 0.0000
vt 0.9652 0.2226 0.0000
vt 0.9652 0.7639 0.0000
vt 0.0278 0.7639 0.0000
# 4 texture coords

o Plane001
g Plane001
usemtl wire_113135006
s 1
f 1/1/1 2/2/1 3/3/1 
f 3/3/1 4/4/1 1/1/1 
# 2 faces

